<?xml version="1.0" standalone="no"?>
<!DOCTYPE svg PUBLIC "-//W3C//DTD SVG 1.1//EN" "http://www.w3.org/Graphics/SVG/1.1/DTD/svg11.dtd" >
<svg xmlns="http://www.w3.org/2000/svg">
<metadata></metadata>
<defs>
<font id="kenyan_coffee_rgregular" horiz-adv-x="821" >
<font-face units-per-em="2048" ascent="1630" descent="-418" />
<missing-glyph horiz-adv-x="352" />
<glyph unicode="&#x28;C&#x29;" horiz-adv-x="1222" d="M74 373v872q0 89 8.5 149.5t34 106t61 71t100 41t139.5 20.5t191 5q118 0 193 -5t141 -20.5t101.5 -41t61.5 -71t35 -106t9 -149.5v-872q0 -67 -4.5 -116.5t-18 -91t-31.5 -69t-51 -49.5t-70.5 -34t-95 -20t-120 -10.5t-150.5 -2.5t-149.5 2.5t-119 10.5t-94 20t-69 34 t-50 49.5t-30.5 69t-17.5 91t-4.5 116.5zM244 375q0 -56 4 -90.5t18 -65t37.5 -46.5t65.5 -28t98.5 -16t140.5 -4q85 0 141 4t99 15.5t67 27.5t38.5 46.5t19 65.5t4.5 91v870q0 54 -4.5 88t-18.5 64.5t-38 47.5t-66.5 29t-100 16.5t-141.5 4.5q-82 0 -138 -4t-98 -16 t-66 -28.5t-38.5 -47t-19 -65.5t-4.5 -89v-870zM426 580v485q0 58 7 90t30.5 50t56.5 23t96 5q113 0 147 -31t34 -137v-139h-121v123q0 32 -13 43.5t-47 11.5q-35 0 -48 -11.5t-13 -43.5v-455q0 -34 11.5 -45.5t49.5 -11.5q36 0 48 11.5t12 45.5v194h121v-208 q0 -60 -8 -93.5t-31.5 -51.5t-53.5 -22.5t-88 -4.5q-120 0 -155 30.5t-35 141.5z" />
<glyph unicode="&#x28;R&#x29;" horiz-adv-x="1222" d="M74 373v872q0 89 8.5 149.5t34 106t61 71t100 41t139.5 20.5t191 5q118 0 193 -5t141 -20.5t101.5 -41t61.5 -71t35 -106t9 -149.5v-872q0 -67 -4.5 -116.5t-18 -91t-31.5 -69t-51 -49.5t-70.5 -34t-95 -20t-120 -10.5t-150.5 -2.5t-149.5 2.5t-119 10.5t-94 20t-69 34 t-50 49.5t-30.5 69t-17.5 91t-4.5 116.5zM244 375q0 -56 4 -90.5t18 -65t37.5 -46.5t65.5 -28t98.5 -16t140.5 -4q85 0 141 4t99 15.5t67 27.5t38.5 46.5t19 65.5t4.5 91v870q0 54 -4.5 88t-18.5 64.5t-38 47.5t-66.5 29t-100 16.5t-141.5 4.5q-82 0 -138 -4t-98 -16 t-66 -28.5t-38.5 -47t-19 -65.5t-4.5 -89v-870zM408 391v883h204q69 0 106.5 -6.5t62.5 -29.5t32.5 -60.5t7.5 -106.5v-115q0 -98 -82 -118v-9q41 -8 61.5 -41t20.5 -106v-291h-143v303q0 53 -8 66.5t-35 13.5h-86v-383h-141zM549 889h86q26 0 34.5 12t8.5 43v127 q0 47 -11 60.5t-49 13.5h-69v-256z" />
<glyph horiz-adv-x="2048" />
<glyph horiz-adv-x="2048" />
<glyph unicode="&#xd;" horiz-adv-x="2048" />
<glyph horiz-adv-x="352" />
<glyph unicode=" "  horiz-adv-x="352" />
<glyph unicode="&#x09;" horiz-adv-x="352" />
<glyph unicode="&#xa0;" horiz-adv-x="352" />
<glyph unicode="!" horiz-adv-x="370" d="M63 1618h242l-39 -1231h-162zM78 0v270h215v-270h-215z" />
<glyph unicode="&#x22;" horiz-adv-x="657" d="M63 1618h183l-31 -582h-121zM391 1618h182l-30 -582h-121z" />
<glyph unicode="#" horiz-adv-x="892" d="M45 461l27 203h121l30 286h-141l24 201h142l55 467h143l-55 -467h187l53 467h145l-55 -467h123l-27 -201h-119l-32 -286h139l-23 -203h-141l-53 -461h-146l54 461h-185l-53 -461h-143l53 461h-123zM336 664h184l33 286h-184z" />
<glyph unicode="$" d="M74 1147v147q0 137 20 205.5t70.5 98.5t154.5 36v131h183v-131q101 -6 149.5 -36t68 -98t19.5 -206v-200h-229v200q0 87 -18 110t-82 23t-82.5 -24.5t-18.5 -108.5v-149q0 -71 22.5 -99.5t108.5 -66.5q76 -35 122 -58.5t84 -52.5t55.5 -52t29.5 -62.5t14.5 -78 t2.5 -104.5v-249q0 -105 -9.5 -165t-38 -99.5t-74 -54t-124.5 -19.5v-131h-183v131q-99 6 -147.5 35.5t-69 98t-20.5 204.5v321h229v-321q0 -85 18 -109.5t81 -24.5q65 0 82.5 24t17.5 110v221q0 44 -1.5 66.5t-7 46.5t-18 37.5t-32.5 27.5t-54 29q-79 36 -127.5 60t-88 53 t-58 51.5t-31 60t-15.5 74.5t-3 98z" />
<glyph unicode="%" horiz-adv-x="1470" d="M82 907v531q0 53 6 85.5t18.5 55t40.5 33t63 14.5t95 4q75 0 114.5 -5.5t67 -27t35.5 -57.5t8 -102v-531q0 -67 -8 -103.5t-35.5 -58t-67 -27t-114.5 -5.5t-114 5.5t-66 27t-35 58t-8 103.5zM244 907q0 -41 10.5 -52t50.5 -11q41 0 51.5 11.5t10.5 51.5v531 q0 40 -11 50.5t-51 10.5q-39 0 -50 -11t-11 -50v-531zM317 0l676 1618h160l-676 -1618h-160zM936 182v531q0 53 6 85.5t18.5 55t40.5 33t63 14.5t95 4q75 0 114.5 -5.5t67 -27t35.5 -57.5t8 -102v-531q0 -67 -8 -103.5t-35.5 -58t-67 -27t-114.5 -5.5t-114 5.5t-66 27 t-35 58t-8 103.5zM1098 182q0 -41 10.5 -52t50.5 -11q41 0 51.5 11.5t10.5 51.5v531q0 40 -11 50.5t-51 10.5q-39 0 -50 -11t-11 -50v-531z" />
<glyph unicode="&#x26;" horiz-adv-x="813" d="M74 332v356q0 54 8 94.5t19 65t32 43.5t38.5 28t47.5 21v8q-29 5 -51.5 16t-45.5 33.5t-35.5 65.5t-12.5 104v121q0 75 5 125t20.5 88.5t37.5 60t62.5 35t88 17.5t122.5 4h34v-205h-34q-64 0 -82.5 -23t-18.5 -102v-141q0 -66 19 -90.5t78 -24.5h90v230h219v-230h76v-186 h-76v-846h-305q-74 0 -122 4t-88.5 18t-62.5 35.5t-37.5 60.5t-20.5 89t-5 125zM309 332q0 -84 18 -106.5t83 -22.5h86v643h-90q-60 0 -78.5 -24.5t-18.5 -92.5v-397z" />
<glyph unicode="'" horiz-adv-x="311" d="M63 1618h183l-31 -582h-121z" />
<glyph unicode="(" horiz-adv-x="526" d="M131 -10v1523q0 204 66 286.5t241 82.5h37v-151h-37q-87 0 -113 -41t-26 -177v-1523q0 -96 11.5 -140.5t39.5 -60.5t88 -16h37v-152h-37q-95 0 -154.5 19.5t-93.5 66.5t-46.5 112.5t-12.5 170.5z" />
<glyph unicode=")" horiz-adv-x="526" d="M51 -227h37q60 0 88 16t39.5 60.5t11.5 140.5v1523q0 136 -26 177t-113 41h-37v151h37q175 0 241 -82.5t66 -286.5v-1523q0 -105 -12.5 -170.5t-46.5 -112.5t-93.5 -66.5t-154.5 -19.5h-37v152z" />
<glyph unicode="*" horiz-adv-x="897" d="M90 995l29 99l239 114l-239 117l-29 98l94 27l219 -160l-24 275l70 73l67 -73l-22 -275l219 160l94 -27l-27 -98l-241 -117l241 -114l27 -99l-94 -26l-219 159l22 -274l-67 -74l-70 74l24 274l-219 -159z" />
<glyph unicode="+" horiz-adv-x="1015" d="M90 725v186h324v322h184v-322h326v-186h-326v-324h-184v324h-324z" />
<glyph unicode="," horiz-adv-x="395" d="M90 0v270h215v-309q0 -88 -45 -133t-147 -45h-23v96h27q33 0 49 17.5t16 58.5v45h-92z" />
<glyph unicode="-" horiz-adv-x="421" d="M43 590v184h334v-184h-334z" />
<glyph unicode="." horiz-adv-x="395" d="M90 0v270h215v-270h-215z" />
<glyph unicode="/" horiz-adv-x="561" d="M8 -147l369 1916h174l-371 -1916h-172z" />
<glyph unicode="0" d="M74 322v976q0 78 5 129.5t20.5 91.5t37.5 61.5t62.5 35.5t88 18t122.5 4t122.5 -4t88.5 -18t63 -35.5t38 -61.5t21 -91.5t5 -129.5v-976q0 -78 -5 -130t-21 -92t-38 -62t-63 -36t-88.5 -18t-122.5 -4t-122.5 4t-88 18t-62.5 36t-37.5 62t-20.5 92t-5 130zM309 322 q0 -85 18.5 -109.5t82.5 -24.5q65 0 82.5 25t17.5 109v976q0 83 -17.5 106t-82.5 23q-64 0 -82.5 -25t-18.5 -104v-976z" />
<glyph unicode="1" horiz-adv-x="505" d="M37 1415v203h379v-1618h-238v1415h-141z" />
<glyph unicode="2" horiz-adv-x="849" d="M86 0v487q0 140 14 209t46.5 108.5t109.5 86.5l182 110q53 32 69.5 59.5t16.5 84.5v160q0 77 -17.5 99.5t-80.5 22.5t-82.5 -25.5t-19.5 -103.5v-200h-230v200q0 78 5 129.5t20.5 91.5t37.5 61.5t62.5 35.5t87.5 18t121 4q75 0 122.5 -4t88.5 -17.5t62 -34.5t36.5 -60.5 t20 -89.5t4.5 -127v-170q0 -127 -31 -184.5t-131 -116.5l-197 -117q-50 -30 -64.5 -59.5t-14.5 -96.5v-352h198v391h240v-600h-676z" />
<glyph unicode="3" horiz-adv-x="804" d="M68 317v314h225v-314q0 -77 20 -102t80 -25t79.5 27t19.5 100v277q0 110 -15.5 143t-81.5 33h-135v213h135q62 0 79.5 22t17.5 85v210q0 81 -19 104t-82 23q-36 0 -56 -5.5t-29 -24t-11 -37t-2 -60.5v-190h-225v190q0 77 5 128.5t20.5 91t36.5 61.5t60.5 35.5t84.5 17.5 t116 4q74 0 122 -4t89 -18t63 -35.5t38 -60.5t21 -89t5 -126v-203q0 -60 -13 -103t-37 -66t-45 -34t-50 -18v-9q48 -10 77 -32.5t48.5 -82.5t19.5 -161v-283q0 -76 -5 -126t-21 -89t-38 -60.5t-63 -35.5t-89 -18t-122 -4q-71 0 -116 4t-84.5 17.5t-60.5 35.5t-36.5 61 t-20.5 90.5t-5 128.5z" />
<glyph unicode="4" horiz-adv-x="860" d="M80 463l6 1165h217l-6 -964h180v708h240v-708h96v-201h-96v-463h-240v463h-397z" />
<glyph unicode="5" horiz-adv-x="829" d="M86 319v291h225v-291q0 -86 16.5 -108.5t82.5 -22.5t83 23t17 108v293q0 113 -20 151t-99 38h-305l6 817h656v-518h-238v342h-197l-2 -469h181q143 0 199.5 -71t56.5 -253v-327q0 -78 -5.5 -130t-21.5 -92t-38 -62t-63 -36t-88.5 -18t-121.5 -4q-71 0 -116 4t-84.5 17.5 t-61 35.5t-37 61.5t-20.5 91.5t-5 129z" />
<glyph unicode="6" d="M74 322v976q0 78 5 129.5t20.5 91.5t37.5 61.5t62.5 35.5t88 18t122.5 4q71 0 116.5 -4t85 -18t60.5 -36t36.5 -61.5t21 -91.5t5.5 -129v-161h-227v161q0 82 -17.5 105.5t-80.5 23.5q-62 0 -81.5 -25.5t-19.5 -103.5v-430q46 90 205 90q75 0 120.5 -16.5t71 -59.5 t34 -103.5t8.5 -162.5v-294q0 -78 -5 -130t-21 -92t-38 -62t-63 -36t-88.5 -18t-122.5 -4t-122.5 4t-88 18t-62.5 36t-37.5 62t-20.5 92t-5 130zM309 340q0 -98 19 -125t82 -27q62 0 81 24.5t19 109.5v290q0 104 -17.5 133t-72.5 29q-53 0 -77.5 -21.5t-33.5 -72.5v-340z " />
<glyph unicode="7" horiz-adv-x="675" d="M53 1421v197h563v-180l-303 -1438h-243l313 1421h-330z" />
<glyph unicode="8" horiz-adv-x="825" d="M74 311v285q0 77 10 129t31.5 81.5t46.5 44t63 21.5v9q-32 7 -55 18t-47 34t-36.5 65.5t-12.5 103.5v207q0 75 5 124.5t21 88t38 60t63 35t89 17.5t122 4t122 -4t89 -17.5t63 -35t38 -60t21 -88t5 -124.5v-207q0 -61 -13 -103.5t-37 -65.5t-47 -34t-55 -18v-9 q30 -6 52 -15.5t42 -29t32 -48.5t19 -75t7 -108v-285q0 -75 -5 -125t-21 -89t-38 -60.5t-63 -35t-89 -17.5t-122 -4t-122 4t-89 17.5t-63 35t-38 60.5t-21 89t-5 125zM311 313q0 -78 19 -101.5t82 -23.5q64 0 82 23t18 102v328q0 89 -18.5 115t-81.5 26q-46 0 -65.5 -11 t-27.5 -45.5t-8 -115.5v-297zM311 1083q0 -65 19.5 -88.5t81.5 -23.5q65 0 82.5 22t17.5 90v201q0 92 -17 117.5t-83 25.5t-83.5 -26t-17.5 -117v-201z" />
<glyph unicode="9" d="M74 954v342q0 78 5 130t20.5 92t37.5 62t62.5 36t88 18t122.5 4t122.5 -4t88.5 -18t63 -36t38 -62t21 -92t5 -130v-977q0 -78 -5 -129.5t-21 -91t-38 -61.5t-63 -35.5t-88.5 -17.5t-122.5 -4q-71 0 -116 4t-84.5 17.5t-61 35.5t-37 61.5t-20.5 91.5t-5 129v125h225v-125 q0 -82 19 -106.5t80 -24.5q64 0 82 25t18 106v381q-46 -88 -203 -88q-75 0 -120 16.5t-70.5 59.5t-34 103.5t-8.5 162.5zM309 1001q0 -135 13.5 -170.5t78.5 -35.5q53 0 77.5 21t31.5 73v407q0 86 -17 108.5t-83 22.5t-83.5 -22.5t-17.5 -108.5v-295z" />
<glyph unicode=":" horiz-adv-x="395" d="M90 0v270h215v-270h-215zM90 813v270h215v-270h-215z" />
<glyph unicode=";" horiz-adv-x="395" d="M90 0v270h215v-309q0 -88 -45 -133t-147 -45h-23v96h27q33 0 49 17.5t16 58.5v45h-92zM90 813v270h215v-270h-215z" />
<glyph unicode="&#x3c;" horiz-adv-x="1015" d="M90 719v199l834 337v-186l-631 -250l631 -252v-186z" />
<glyph unicode="=" horiz-adv-x="1015" d="M90 506v184h836v-184h-836zM90 952v185h836v-185h-836z" />
<glyph unicode="&#x3e;" horiz-adv-x="1015" d="M92 381v186l631 252l-631 250v186l834 -337v-199z" />
<glyph unicode="?" horiz-adv-x="792" d="M59 1094v204q0 77 5.5 129t21 91.5t37.5 61.5t62 36t86 18t118 4q74 0 121.5 -4t88.5 -18t63 -36t38 -61.5t21.5 -91.5t5.5 -129v-145q0 -105 -14 -157t-62 -128l-141 -225q-24 -37 -30.5 -61t-6.5 -74v-121h-201v131q0 96 13 149t53 119l113 179q24 37 31 70.5t7 99.5 v163q0 82 -18 105.5t-82 23.5q-66 0 -83 -23.5t-17 -105.5v-204h-230zM268 0v268h215v-268h-215z" />
<glyph unicode="@" horiz-adv-x="866" d="M74 84v987q0 78 5.5 129.5t22 91.5t39.5 61.5t66.5 35.5t94 18t130.5 4t130.5 -4t94.5 -18t67.5 -36t40.5 -61.5t22.5 -91t5.5 -129.5v-799h-136v50q-39 -58 -139 -58q-91 0 -120 36.5t-29 141.5v299q0 111 29 149t120 38q97 0 129 -49v204q0 41 -2 65t-10 47t-21 35 t-37.5 21t-57.5 12t-83 3q-61 0 -97 -4.5t-61.5 -14.5t-36.5 -33t-15.5 -51.5t-4.5 -79.5v-1013q0 -57 6 -86.5t29.5 -50t64 -26t115.5 -5.5q74 0 113.5 5.5t62.5 26t29 50t6 86.5v57h146v-43q0 -75 -5.5 -125.5t-22.5 -89.5t-40.5 -60.5t-67.5 -35t-95 -17.5t-130 -4 t-130 4t-94.5 17.5t-66.5 35t-39.5 60.5t-22 89t-5.5 126zM504 457q0 -45 13.5 -61.5t53.5 -16.5q55 0 76 55v320q-18 47 -76 47q-38 0 -52.5 -18t-14.5 -60v-266z" />
<glyph unicode="A" d="M78 0v1298q0 77 5.5 129t21 91.5t37.5 61.5t62 36t86 18t118 4q71 0 118 -5t87 -19t62.5 -36.5t38.5 -62t21.5 -91t5.5 -126.5v-1298h-235v360h-199v-360h-229zM307 553h199v745q0 83 -18.5 106t-81.5 23t-81 -23t-18 -106v-745z" />
<glyph unicode="B" horiz-adv-x="833" d="M90 0v1618h336q75 0 122.5 -4t88.5 -17.5t63 -35t38 -60t21 -88.5t5 -125v-121q0 -59 -14.5 -103.5t-38.5 -68t-46.5 -35t-46.5 -14.5v-8q35 -8 59.5 -22.5t45.5 -43t31 -77.5t10 -121v-342q0 -75 -5 -125t-21 -89t-38 -60.5t-63 -35.5t-89 -18t-122 -4h-336zM326 203 h100q64 0 82 23.5t18 105.5v395q0 71 -17.5 95t-76.5 24h-106v-643zM326 1032h106q56 0 75 22.5t19 82.5v151q0 78 -17.5 101.5t-82.5 23.5h-100v-381z" />
<glyph unicode="C" horiz-adv-x="808" d="M74 322v976q0 76 6 128.5t22 91.5t39 61.5t63.5 36t87 18t118.5 4.5q71 0 116.5 -4t85 -18t60.5 -36t36.5 -61.5t21 -91.5t5.5 -129v-366h-227v366q0 83 -17.5 106t-80.5 23q-64 0 -82.5 -25t-18.5 -104v-976q0 -85 18.5 -109.5t82.5 -24.5q63 0 80.5 24.5t17.5 109.5 v374h227v-374q0 -78 -5.5 -130t-21 -92t-36.5 -62t-60.5 -36t-85 -18t-116.5 -4q-75 0 -122.5 4t-88 18t-62.5 36t-37.5 62t-20.5 92t-5 130z" />
<glyph unicode="D" horiz-adv-x="837" d="M90 0v1618h336q75 0 122.5 -4t88.5 -17.5t63 -35t38 -60t21 -88.5t5 -125v-956q0 -75 -5 -125t-21 -89t-38 -60.5t-63 -35.5t-89 -18t-122 -4h-336zM326 203h100q64 0 82 23.5t18 105.5v956q0 80 -18 102.5t-82 22.5h-100v-1210z" />
<glyph unicode="E" horiz-adv-x="602" d="M90 0v1618h461v-195h-225v-235h219v-187h-219v-798h227v-203h-463z" />
<glyph unicode="F" horiz-adv-x="589" d="M90 0v1618h471v-195h-235v-239h227v-195h-227v-989h-236z" />
<glyph unicode="G" horiz-adv-x="817" d="M74 322v976q0 76 6 128.5t22 91.5t39 61.5t63.5 36t87 18t118.5 4.5q71 0 116.5 -4t85 -18t60.5 -36t36.5 -61.5t21 -91.5t5.5 -129v-147h-227v147q0 83 -17.5 106t-80.5 23q-64 0 -82.5 -25t-18.5 -104v-976q0 -81 19 -107.5t82 -26.5q68 0 104 9v743h221v-940 q-97 -20 -325 -20q-73 0 -122 5.5t-88.5 20.5t-62.5 38.5t-38 63.5t-20 90t-5 124z" />
<glyph unicode="H" horiz-adv-x="858" d="M90 0v1618h236v-535h204v535h238v-1618h-238v885h-204v-885h-236z" />
<glyph unicode="I" horiz-adv-x="425" d="M94 0v1618h236v-1618h-236z" />
<glyph unicode="J" horiz-adv-x="765" d="M29 322v374h215v-374q0 -84 18 -109t78 -25q61 0 78.5 25.5t17.5 108.5v1296h238v-1296q0 -78 -5 -130t-20.5 -92t-37 -62t-61.5 -36t-86.5 -18t-119.5 -4q-69 0 -113 4t-82 18t-59 36t-36 62t-20 92t-5 130z" />
<glyph unicode="K" horiz-adv-x="831" d="M90 0v1616h238v-610h10l199 612h247l-241 -672l274 -946h-256l-223 850h-10v-850h-238z" />
<glyph unicode="L" horiz-adv-x="593" d="M90 0v1618h236v-1413h241v-205h-477z" />
<glyph unicode="M" horiz-adv-x="1095" d="M90 0v1618h330l123 -1088h8l125 1088h328v-1618h-193v1143h-8l-150 -1143h-211l-149 1151h-8v-1151h-195z" />
<glyph unicode="N" horiz-adv-x="888" d="M90 0v1618h260l234 -1038h8v1038h205v-1618h-252l-244 1010h-8v-1010h-203z" />
<glyph unicode="O" d="M74 322v976q0 78 5 129.5t20.5 91.5t37.5 61.5t62.5 35.5t88 18t122.5 4t122.5 -4t88.5 -18t63 -35.5t38 -61.5t21 -91.5t5 -129.5v-976q0 -78 -5 -130t-21 -92t-38 -62t-63 -36t-88.5 -18t-122.5 -4t-122.5 4t-88 18t-62.5 36t-37.5 62t-20.5 92t-5 130zM309 322 q0 -85 18.5 -109.5t82.5 -24.5q65 0 82.5 25t17.5 109v976q0 83 -17.5 106t-82.5 23q-64 0 -82.5 -25t-18.5 -104v-976z" />
<glyph unicode="P" horiz-adv-x="813" d="M90 0v1618h336q75 0 122.5 -4t88.5 -17.5t63 -35t38 -60t21 -88.5t5 -125v-346q0 -75 -5.5 -125.5t-21.5 -89t-38.5 -60t-63.5 -34.5t-88 -17t-121 -4h-100v-612h-236zM326 803h100q63 0 81.5 24t18.5 107v354q0 81 -16.5 103t-83.5 22h-100v-610z" />
<glyph unicode="Q" d="M74 334v964q0 78 5 129.5t20.5 91.5t37.5 61.5t62.5 35.5t88 18t122.5 4t122.5 -4t88.5 -18t63 -35.5t38 -61.5t21 -91.5t5 -129.5v-964q0 -143 -25.5 -208.5t-95.5 -88.5l121 -193h-205l-109 174q-62 0 -105.5 2t-82.5 8.5t-63.5 16t-45.5 27.5t-32 39.5t-18.5 55.5 t-10 73t-2.5 94zM309 334q0 -84 18 -106.5t83 -22.5t82.5 23t17.5 106v964q0 83 -17.5 106t-82.5 23q-64 0 -82.5 -25t-18.5 -104v-964z" />
<glyph unicode="R" horiz-adv-x="841" d="M90 0v1618h336q74 0 122.5 -4.5t89 -18t62.5 -35t38 -60.5t21 -88.5t5 -123.5v-170q0 -60 -13 -103t-37 -66t-45.5 -34t-50.5 -18v-8q73 -17 109.5 -68.5t36.5 -175.5v-645h-238v682q0 69 -17.5 93t-76.5 24h-106v-799h-236zM326 985h106q56 0 75 22.5t19 82.5v198 q0 79 -17 102t-83 23h-100v-428z" />
<glyph unicode="S" horiz-adv-x="813" d="M70 1139v155q0 79 5 130.5t20 92t37 62.5t62.5 36.5t88.5 18.5t123 4q73 0 119.5 -4.5t86.5 -18.5t61 -36t36.5 -62.5t20.5 -92.5t5 -130v-200h-229v200q0 87 -16.5 110t-83.5 23t-84 -23t-17 -110v-159q0 -63 21 -88.5t110 -71.5q77 -40 122.5 -65.5t83.5 -55t55 -51.5 t29 -58.5t14.5 -70.5t2.5 -92v-260q0 -78 -5 -130t-20.5 -92t-37 -62t-62.5 -36t-89 -18t-123 -4q-71 0 -116.5 4t-85.5 18t-61.5 36t-37.5 61.5t-21.5 92t-5.5 130.5v321h229v-321q0 -86 17.5 -110t81.5 -24q65 0 82.5 24t17.5 110v243q0 84 -20.5 116.5t-110.5 78.5 q-74 38 -121.5 65.5t-83 56.5t-54 52t-30 57t-14 65t-2.5 83z" />
<glyph unicode="T" horiz-adv-x="641" d="M25 1421v197h589v-197h-176v-1421h-235v1421h-178z" />
<glyph unicode="U" horiz-adv-x="829" d="M82 322v1296h235v-1296q0 -84 19 -108t84 -24q62 0 80 24t18 108v1296h230v-1296q0 -78 -5.5 -130t-21 -92t-37.5 -62t-62.5 -36t-87 -18t-118.5 -4t-119 4t-87.5 18t-62.5 36t-38 61.5t-21.5 92t-5.5 130.5z" />
<glyph unicode="V" horiz-adv-x="765" d="M16 1618h242l113 -1325h8l125 1325h244l-205 -1618h-344z" />
<glyph unicode="W" horiz-adv-x="1185" d="M18 1618h236l68 -1272h8l108 1272h301l92 -1272h9l88 1272h237l-188 -1618h-299l-86 1284h-8l-113 -1284h-303z" />
<glyph unicode="X" horiz-adv-x="774" d="M12 0l185 848l-172 770h241l129 -621l115 621h219l-164 -770l193 -848h-244l-135 723l-131 -723h-236z" />
<glyph unicode="Y" horiz-adv-x="724" d="M6 1618h234l116 -731h9l122 731h230l-242 -1047v-571h-235v571z" />
<glyph unicode="Z" horiz-adv-x="643" d="M37 0v205l325 1216h-292v197h530v-160l-317 -1255h321v-203h-567z" />
<glyph unicode="[" horiz-adv-x="526" d="M150 -379v2261h346v-151h-179v-1958h179v-152h-346z" />
<glyph unicode="\" horiz-adv-x="561" d="M8 1769h172l371 -1916h-174z" />
<glyph unicode="]" horiz-adv-x="526" d="M31 -227h178v1958h-178v151h346v-2261h-346v152z" />
<glyph unicode="^" horiz-adv-x="931" d="M53 698l314 920h196l314 -920h-185l-229 701l-225 -701h-185z" />
<glyph unicode="_" horiz-adv-x="811" d="M-2 -94h817v-185h-817v185z" />
<glyph unicode="`" horiz-adv-x="413" d="M29 1649h225l129 -340h-158z" />
<glyph unicode="a" horiz-adv-x="727" d="M74 217v297q0 112 43 162.5t143 50.5h39q109 0 141 -18v254q0 67 -16.5 86.5t-75.5 19.5q-54 0 -69 -21t-15 -85v-121h-190v145q0 59 4.5 99t17 70t30.5 47t51.5 27.5t72 13.5t98.5 3q65 0 107 -3t77.5 -13.5t55 -27.5t33 -47t18 -70t4.5 -99v-987q-82 -20 -311 -20 q-84 0 -129.5 7.5t-77 33.5t-41.5 71t-10 125zM264 268q0 -74 14 -95t70 -21q76 0 92 4v401q-22 12 -90 12q-57 0 -71.5 -20.5t-14.5 -87.5v-193z" />
<glyph unicode="b" horiz-adv-x="751" d="M90 0v1618h209v-467q50 86 178 86q117 0 158 -54t41 -196v-747q0 -148 -39.5 -199t-161.5 -51q-75 0 -119.5 22.5t-70.5 75.5v-88h-195zM293 240q26 -64 92 -64q53 0 70.5 21t17.5 82v667q0 61 -17.5 82t-70.5 21q-66 0 -92 -64v-745z" />
<glyph unicode="c" horiz-adv-x="714" d="M74 240v747q0 88 11 137t46.5 78t87.5 37t148 8q91 0 141.5 -9t82.5 -39.5t42 -78t10 -133.5v-215h-190v193q0 54 -16 70t-70 16q-59 0 -75 -16t-16 -70v-705q0 -54 17 -71t74 -17q53 0 69.5 18.5t16.5 69.5v318h190v-338q0 -59 -5 -99.5t-18.5 -70.5t-32 -47t-52 -27 t-71.5 -13t-97 -3q-65 0 -107 3.5t-77 14.5t-54.5 27.5t-32.5 47t-17.5 69.5t-4.5 98z" />
<glyph unicode="d" horiz-adv-x="751" d="M74 240v747q0 147 39 198.5t159 51.5q127 0 177 -86v467h210v-1618h-194v88q-27 -53 -71.5 -75.5t-119.5 -22.5q-121 0 -160.5 51t-39.5 199zM276 279q0 -62 17 -82.5t69 -20.5q67 0 93 64v745q-26 64 -93 64q-52 0 -69 -20.5t-17 -82.5v-667z" />
<glyph unicode="e" horiz-adv-x="718" d="M74 240v747q0 59 4.5 99t18 70t32.5 47t55 27.5t77 13.5t106 3q61 0 99.5 -3t72.5 -13.5t51.5 -27.5t30.5 -47t17.5 -70t4.5 -99v-446h-364v-289q0 -59 16 -76.5t72 -17.5q55 0 71.5 17.5t16.5 76.5v166h188v-178q0 -59 -4.5 -99t-17.5 -70t-30.5 -47t-51.5 -27.5 t-72.5 -13.5t-99.5 -3q-65 0 -106 3t-77 13.5t-55 27.5t-32.5 47t-18 70t-4.5 99zM279 709h176v262q0 58 -16 75t-72 17q-57 0 -72.5 -16.5t-15.5 -75.5v-262z" />
<glyph unicode="f" horiz-adv-x="495" d="M27 1057v170h75v131q0 137 69 198.5t228 61.5h66v-156h-51q-54 0 -78.5 -27.5t-24.5 -86.5v-121h156v-170h-156v-1057h-209v1057h-75z" />
<glyph unicode="g" horiz-adv-x="751" d="M74 303v684q0 147 39.5 198.5t160.5 51.5q74 0 118.5 -23t72.5 -77v90h194v-1247q0 -152 -65.5 -222.5t-218.5 -70.5h-269v176h220q70 0 96.5 24.5t26.5 92.5v157q-49 -84 -177 -84q-121 0 -159.5 52.5t-38.5 197.5zM276 342q0 -62 17 -82t69 -20q67 0 93 63v682 q-26 64 -93 64q-52 0 -69 -20.5t-17 -82.5v-604z" />
<glyph unicode="h" horiz-adv-x="778" d="M90 0v1618h209v-469q46 88 180 88q123 0 169 -53t46 -197v-987h-209v965q0 48 -19 66t-71 18q-70 0 -96 -64v-985h-209z" />
<glyph unicode="i" horiz-adv-x="397" d="M94 0v1227h207v-1227h-207zM94 1405v213h207v-213h-207z" />
<glyph unicode="j" horiz-adv-x="397" d="M-98 -137h98q53 0 75.5 26.5t22.5 90.5v1247h209v-1247q0 -150 -68.5 -221.5t-222.5 -71.5h-114v176zM98 1405v213h209v-213h-209z" />
<glyph unicode="k" horiz-adv-x="747" d="M90 0v1618h207v-844h8l172 453h228l-224 -512l250 -715h-233l-193 631h-8v-631h-207z" />
<glyph unicode="l" horiz-adv-x="391" d="M90 0v1618h209v-1618h-209z" />
<glyph unicode="m" horiz-adv-x="1173" d="M90 0v1227h195v-82q48 92 192 92q83 0 129.5 -22.5t67.5 -77.5q53 100 196 100q125 0 171 -53t46 -197v-987h-208v965q0 48 -19 66t-72 18q-69 0 -94 -62v-987h-209v965q0 48 -19 66t-71 18q-70 0 -96 -64v-985h-209z" />
<glyph unicode="n" horiz-adv-x="778" d="M90 0v1227h195v-82q48 92 192 92q125 0 171 -53t46 -197v-987h-209v965q0 48 -19 66t-71 18q-70 0 -96 -64v-985h-209z" />
<glyph unicode="o" horiz-adv-x="735" d="M74 240v747q0 59 4.5 99t18 70t32.5 47t55 27.5t77 13.5t106 3q64 0 105 -3t76.5 -13.5t54.5 -27.5t33 -47t18.5 -70t4.5 -99v-747q0 -59 -4.5 -99t-18.5 -70t-33 -47t-54.5 -27.5t-76.5 -13.5t-105 -3q-65 0 -106 3t-77 13.5t-55 27.5t-32.5 47t-18 70t-4.5 99zM276 260 q0 -54 17 -71t74 -17q56 0 73 18t17 70v705q0 54 -16.5 70t-73.5 16q-56 0 -73.5 -17t-17.5 -69v-705z" />
<glyph unicode="p" horiz-adv-x="751" d="M90 -313v1540h195v-90q26 53 71 76.5t119 23.5q121 0 161 -51.5t40 -198.5v-747q0 -148 -39.5 -199t-159.5 -51q-129 0 -178 84v-387h-209zM293 240q26 -64 92 -64q53 0 70.5 21t17.5 82v667q0 61 -17.5 82t-70.5 21q-66 0 -92 -64v-745z" />
<glyph unicode="q" horiz-adv-x="751" d="M74 240v747q0 147 39.5 198.5t160.5 51.5q74 0 118.5 -23t72.5 -77v90h194v-1540h-210v387q-49 -84 -177 -84q-119 0 -158.5 53t-39.5 197zM276 279q0 -62 17 -82.5t69 -20.5q67 0 93 64v745q-26 64 -93 64q-52 0 -69 -20.5t-17 -82.5v-667z" />
<glyph unicode="r" horiz-adv-x="692" d="M90 0v1227h195v-82q49 92 190 92q108 0 149.5 -53t41.5 -197v-305h-189v281q0 50 -17 68t-69 18q-32 0 -57 -18t-35 -50v-981h-209z" />
<glyph unicode="s" horiz-adv-x="727" d="M70 242v188h204v-166q0 -56 17 -73t74 -17q58 0 73 17t15 73v150q0 55 -21.5 78.5t-105.5 56.5q-52 19 -129 57q-76 39 -101.5 87t-25.5 143v149q0 72 8 116.5t25 75t53.5 45t83 20t125.5 5.5q65 0 106 -3t76.5 -13.5t54 -27.5t32 -47.5t17.5 -70.5t4 -100v-113h-202v93 q0 55 -16 71.5t-72 16.5q-59 0 -75 -16.5t-16 -71.5v-99q0 -49 18.5 -73t86.5 -52q57 -24 141 -65q85 -43 110 -86t25 -121v-227q0 -60 -4 -99.5t-17.5 -70.5t-32 -47.5t-53.5 -27.5t-76.5 -14t-106.5 -3t-106.5 3t-77 13.5t-55 27.5t-33.5 47.5t-18.5 70.5t-4.5 100z" />
<glyph unicode="t" horiz-adv-x="493" d="M18 1057v170h76v372h209v-372h143v-170h-143v-770q0 -64 21 -86.5t82 -22.5h38v-178h-53q-165 0 -231 61t-66 199v797h-76z" />
<glyph unicode="u" horiz-adv-x="772" d="M82 240v987h209v-967q0 -46 17.5 -65t68.5 -19q68 0 94 64v987h211v-1227h-197v80q-47 -90 -188 -90q-125 0 -170 52t-45 198z" />
<glyph unicode="v" horiz-adv-x="667" d="M12 1227h219l95 -932h8l102 932h217l-166 -1227h-327z" />
<glyph unicode="w" horiz-adv-x="1097" d="M10 1227h223l64 -918h8l105 918h272l94 -918h8l76 918h223l-170 -1227h-282l-82 932h-8l-105 -932h-284z" />
<glyph unicode="x" horiz-adv-x="694" d="M12 0l170 647l-159 580h217l112 -469l105 469h196l-145 -584l170 -643h-219l-119 545l-117 -545h-211z" />
<glyph unicode="y" horiz-adv-x="778" d="M82 303v924h209v-885q0 -60 20 -81t74 -21q63 0 92 63v924h209v-1247q0 -152 -67 -222.5t-220 -70.5h-274v176h223q70 0 97.5 24.5t27.5 92.5v157q-49 -84 -180 -84q-122 0 -166.5 52t-44.5 198z" />
<glyph unicode="z" horiz-adv-x="616" d="M31 0v178l338 879h-301v170h507v-158l-327 -893h334v-176h-551z" />
<glyph unicode="{" horiz-adv-x="546" d="M55 664v139h31q104 0 104 112v629q0 98 13 159t47.5 103t93 59t150.5 17h22v-149h-22q-82 0 -110 -39.5t-28 -149.5v-618q0 -144 -80 -193q80 -53 80 -192v-621q0 -110 28 -149t110 -39h22v-148h-22q-93 0 -151 16.5t-92.5 58t-47.5 102.5t-13 159v631q0 113 -104 113 h-31z" />
<glyph unicode="|" horiz-adv-x="466" d="M147 -379v2261h168v-2261h-168z" />
<glyph unicode="}" horiz-adv-x="546" d="M31 -268h22q82 0 109.5 39t27.5 149v621q0 139 80 192q-80 49 -80 193v618q0 110 -27.5 149.5t-109.5 39.5h-22v149h22q92 0 150 -17t92.5 -59t47.5 -103t13 -159v-629q0 -112 105 -112h31v-139h-31q-105 0 -105 -113v-631q0 -98 -13 -159t-47.5 -102.5t-92 -58 t-150.5 -16.5h-22v148z" />
<glyph unicode="~" horiz-adv-x="1048" d="M90 651v174q15 56 74.5 91.5t140.5 35.5q46 0 104 -19t104 -41.5t101.5 -41.5t98.5 -19q83 0 132 36.5t79 107.5v-176q-14 -54 -75 -89.5t-140 -35.5q-50 0 -110 18.5t-105 41t-99 41t-94 18.5q-83 0 -129.5 -36t-81.5 -106z" />
<glyph unicode="&#xa1;" horiz-adv-x="370" d="M63 0l39 1231h162l41 -1231h-242zM76 1348v270h215v-270h-215z" />
<glyph unicode="&#xa2;" horiz-adv-x="729" d="M78 414v790q0 146 37.5 197.5t154.5 58.5v199h183v-199q118 -8 156 -57.5t38 -198.5v-248h-190v226q0 56 -15.5 72t-70.5 16q-59 0 -74.5 -16t-15.5 -72v-748q0 -53 17 -69.5t73 -16.5q55 0 70.5 16.5t15.5 69.5v328h190v-348q0 -150 -38.5 -201t-155.5 -57v-197h-183 v197q-118 9 -155 60t-37 198z" />
<glyph unicode="&#xa3;" horiz-adv-x="819" d="M43 0v197h70v389h-70v170h70v542q0 78 5 129.5t20 91.5t36 61.5t61 35.5t86 18t119 4q69 0 113.5 -4t83 -18t59.5 -36t36.5 -61.5t20.5 -91.5t5 -129v-401h-215v401q0 83 -18 107.5t-79 24.5q-63 0 -80.5 -24t-17.5 -108v-542h365v-170h-365v-389h414v-197h-719z" />
<glyph unicode="&#xa4;" horiz-adv-x="1060" d="M51 434l174 174q-12 37 -12 129v142q0 91 12 131l-172 172l105 104l192 -194q55 24 182 24q128 0 177 -24l194 194l105 -104l-170 -168q14 -46 14 -135v-142q0 -87 -14 -133l170 -170l-105 -104l-192 192q-48 -22 -179 -22q-135 0 -182 24l-194 -194zM352 737 q0 -49 11 -70.5t48.5 -31.5t120.5 -10t120.5 10t49 31.5t11.5 70.5v144q0 47 -11 68.5t-49.5 32.5t-120.5 11t-120 -11t-49 -32.5t-11 -68.5v-144z" />
<glyph unicode="&#xa5;" horiz-adv-x="811" d="M49 1618h230l120 -670h9l120 670h232l-217 -897h180v-143h-193v-170h193v-146h-193v-262h-247v262h-215v146h215v170h-215v143h202z" />
<glyph unicode="&#xa6;" horiz-adv-x="466" d="M147 -379v909h168v-909h-168zM147 1026v856h168v-856h-168z" />
<glyph unicode="&#xa7;" horiz-adv-x="727" d="M70 129v154h202v-131q0 -60 17 -77.5t73 -17.5q57 0 74 19t17 76v106q0 63 -23 89t-111 61q-81 32 -123 53.5t-74 52t-42 67t-10 95.5v153q0 105 18 152t72 68q-55 30 -72.5 69.5t-17.5 126.5v135q0 60 4.5 100t18 70.5t32.5 47.5t54.5 27.5t76.5 13.5t106 3t106 -3 t77 -13.5t55 -27.5t32.5 -47.5t18 -70.5t4.5 -100v-102h-202v82q0 55 -16.5 71.5t-74.5 16.5q-57 0 -73.5 -17.5t-16.5 -70.5v-78q0 -51 19.5 -78t91.5 -59q92 -40 144.5 -70.5t82 -68.5t37.5 -75.5t8 -101.5v-153q0 -82 -15.5 -126t-51.5 -69q41 -30 54 -81t13 -144v-127 q0 -61 -4 -101t-17.5 -71t-32 -47.5t-54.5 -27.5t-77.5 -14t-107.5 -3q-64 0 -105 3t-76.5 13.5t-54.5 27.5t-33 48t-18.5 71.5t-4.5 100.5zM272 707q0 -56 22.5 -76.5t108.5 -42.5q31 6 40.5 35.5t9.5 89.5v90q0 62 -19.5 91t-71.5 38q-62 -7 -76 -36t-14 -128v-61z" />
<glyph unicode="&#xa8;" horiz-adv-x="765" d="M94 1405v213h207v-213h-207zM463 1405v213h209v-213h-209z" />
<glyph unicode="&#xaa;" horiz-adv-x="552" d="M82 934v162q0 65 30 94t97 29h22q73 0 91 -9v127q0 33 -10.5 42.5t-45.5 9.5q-33 0 -43 -11t-10 -41v-71h-131v86q0 98 33.5 123.5t150.5 25.5q125 0 161 -25.5t36 -123.5v-543q-70 -12 -209 -12q-106 0 -139 25.5t-33 111.5zM213 963q0 -35 9.5 -45.5t43.5 -10.5 q48 0 56 2v203q-18 6 -56 6q-34 0 -43.5 -10t-9.5 -41v-104z" />
<glyph unicode="&#xab;" horiz-adv-x="958" d="M78 668v170l319 215v-160l-200 -139l200 -142v-159zM557 668v170l320 215v-160l-201 -139l201 -142v-159z" />
<glyph unicode="&#xac;" horiz-adv-x="1015" d="M90 739v185h836v-879h-185v694h-651z" />
<glyph unicode="&#xad;" horiz-adv-x="421" d="M43 590v184h334v-184h-334z" />
<glyph unicode="&#xaf;" horiz-adv-x="788" d="M94 1450v125h598v-125h-598z" />
<glyph unicode="&#xb0;" horiz-adv-x="690" d="M45 1319q0 133 87 226t214 93q124 0 211.5 -93.5t87.5 -225.5q0 -131 -87.5 -223t-211.5 -92q-127 0 -214 92t-87 223zM156 1319q0 -82 55.5 -140.5t134.5 -58.5q76 0 131 58.5t55 140.5q0 83 -54.5 142t-131.5 59q-79 0 -134.5 -59t-55.5 -142z" />
<glyph unicode="&#xb1;" horiz-adv-x="1015" d="M90 0v186h834v-186h-834zM90 725v186h324v322h184v-322h326v-186h-326v-324h-184v324h-324z" />
<glyph unicode="&#xb2;" horiz-adv-x="634" d="M90 725v311q0 85 20.5 118.5t94.5 70.5l119 59q30 15 41.5 30t11.5 40v86q0 38 -11.5 48.5t-50.5 10.5t-51 -12t-12 -49v-117h-158v117q0 66 8 102t35.5 57.5t66.5 27t113 5.5q75 0 114.5 -5.5t66.5 -27t35 -57t8 -100.5v-90q0 -73 -21.5 -105t-89.5 -67l-127 -64 q-31 -15 -41 -30t-10 -46v-184h123v213h166v-342h-451z" />
<glyph unicode="&#xb3;" horiz-adv-x="604" d="M78 905v178h155v-178q0 -38 12.5 -49.5t49.5 -11.5t48 13t11 48v150q0 55 -9.5 71.5t-49.5 16.5h-90v131h90q38 0 48.5 10t10.5 41v113q0 39 -11.5 50t-49.5 11q-42 0 -51 -11.5t-9 -49.5v-111h-155v111q0 66 8 102t34.5 57.5t64 27t108.5 5.5q141 0 183 -34t42 -156 v-109q0 -99 -69 -125q36 -11 52.5 -44t16.5 -105v-154q0 -122 -42 -156t-183 -34q-71 0 -108.5 5.5t-64 27t-34.5 57.5t-8 102z" />
<glyph unicode="&#xb4;" horiz-adv-x="413" d="M29 1309l129 340h225l-195 -340h-159z" />
<glyph unicode="&#xb6;" horiz-adv-x="1202" d="M68 985v303q0 75 5 125t20.5 88.5t37 60t62 35t88 17.5t122.5 4h705v-1931h-236v1734h-161v-1734h-236v968h-72q-75 0 -122.5 4t-88 17.5t-62 35t-37 60t-20.5 88.5t-5 125zM303 975q0 -82 18 -105.5t82 -23.5h72v567h-72q-64 0 -82 -24t-18 -103v-311z" />
<glyph unicode="&#xb7;" horiz-adv-x="395" d="M90 676v270h215v-270h-215z" />
<glyph unicode="&#xb8;" horiz-adv-x="366" d="M25 -379l104 338h209l-168 -338h-145z" />
<glyph unicode="&#xb9;" horiz-adv-x="407" d="M57 1493v127h256v-895h-161v768h-95z" />
<glyph unicode="&#xba;" horiz-adv-x="557" d="M82 946v406q0 98 35.5 123.5t158.5 25.5q124 0 159.5 -25.5t35.5 -123.5v-406q0 -96 -36 -122.5t-159 -26.5q-122 0 -158 27t-36 122zM221 958q0 -25 10.5 -32.5t44.5 -7.5q35 0 46.5 8t11.5 32v381q0 24 -11 31.5t-47 7.5q-33 0 -44 -8t-11 -31v-381z" />
<glyph unicode="&#xbb;" horiz-adv-x="958" d="M82 453v159l201 142l-201 139v160l319 -215v-170zM561 453v159l201 142l-201 139v160l320 -215v-170z" />
<glyph unicode="&#xbc;" horiz-adv-x="1286" d="M57 1493v127h256v-895h-161v768h-95zM109 0l675 1618h160l-676 -1618h-159zM735 250v649h148v-522h108v385h166v-385h60v-127h-60v-250h-166v250h-256z" />
<glyph unicode="&#xbd;" horiz-adv-x="1280" d="M57 1493v127h256v-895h-161v768h-95zM109 0l675 1618h160l-676 -1618h-159zM735 0v311q0 85 20.5 118.5t94.5 70.5l119 59q30 15 41.5 30t11.5 40v86q0 38 -11 48.5t-50 10.5t-51.5 -12t-12.5 -49v-117h-158v117q0 66 8 102t35.5 57.5t67 27t113.5 5.5q50 0 81.5 -2 t58.5 -10t41.5 -20t24.5 -34.5t13.5 -51t3.5 -72.5v-90q0 -73 -21.5 -105t-89.5 -67l-127 -64q-31 -15 -41 -30t-10 -46v-184h123v213h166v-342h-451z" />
<glyph unicode="&#xbe;" horiz-adv-x="1482" d="M78 905v178h155v-178q0 -38 12.5 -49.5t49.5 -11.5t48 13t11 48v150q0 55 -9.5 71.5t-49.5 16.5h-90v131h90q38 0 48.5 10t10.5 41v113q0 39 -11.5 50t-49.5 11q-42 0 -51 -11.5t-9 -49.5v-111h-155v111q0 66 8 102t34.5 57.5t64 27t108.5 5.5q141 0 183 -34t42 -156 v-109q0 -99 -69 -125q36 -11 52.5 -44t16.5 -105v-154q0 -122 -42 -156t-183 -34q-71 0 -108.5 5.5t-64 27t-34.5 57.5t-8 102zM305 0l676 1618h160l-676 -1618h-160zM932 250v649h147v-522h109v385h166v-385h59v-127h-59v-250h-166v250h-256z" />
<glyph unicode="&#xbf;" horiz-adv-x="792" d="M59 319v146q0 105 14 157t62 128l141 225q24 37 30.5 61t6.5 74v121h201v-131q0 -97 -12.5 -150t-52.5 -119l-113 -178q-24 -37 -31.5 -71t-7.5 -99v-164q0 -82 18 -105.5t82 -23.5q66 0 83.5 23.5t17.5 105.5v205h229v-205q0 -77 -5.5 -129t-21 -91.5t-37.5 -61.5 t-62 -35.5t-86 -17.5t-118 -4q-74 0 -121.5 4t-88.5 17.5t-63 35.5t-38 61.5t-21.5 91.5t-5.5 129zM303 1350v268h215v-268h-215z" />
<glyph unicode="&#xc0;" d="M78 0v1298q0 77 5.5 129t21 91.5t37.5 61.5t62 36t86 18t118 4q71 0 118 -5t87 -19t62.5 -36.5t38.5 -62t21.5 -91t5.5 -126.5v-1298h-235v360h-199v-360h-229zM172 2040h225l129 -340h-157zM307 553h199v745q0 83 -18.5 106t-81.5 23t-81 -23t-18 -106v-745z" />
<glyph unicode="&#xc1;" d="M78 0v1298q0 77 5.5 129t21 91.5t37.5 61.5t62 36t86 18t118 4q71 0 118 -5t87 -19t62.5 -36.5t38.5 -62t21.5 -91t5.5 -126.5v-1298h-235v360h-199v-360h-229zM295 1700l129 340h225l-194 -340h-160zM307 553h199v745q0 83 -18.5 106t-81.5 23t-81 -23t-18 -106v-745z " />
<glyph unicode="&#xc2;" d="M78 0v1298q0 77 5.5 129t21 91.5t37.5 61.5t62 36t86 18t118 4q71 0 118 -5t87 -19t62.5 -36.5t38.5 -62t21.5 -91t5.5 -126.5v-1298h-235v360h-199v-360h-229zM113 1700l209 340h178l207 -340h-148l-149 223l-150 -223h-147zM307 553h199v745q0 83 -18.5 106t-81.5 23 t-81 -23t-18 -106v-745z" />
<glyph unicode="&#xc3;" d="M78 0v1298q0 77 5.5 129t21 91.5t37.5 61.5t62 36t86 18t118 4q71 0 118 -5t87 -19t62.5 -36.5t38.5 -62t21.5 -91t5.5 -126.5v-1298h-235v360h-199v-360h-229zM111 1798v150q57 53 139 53q58 0 159 -32t158 -32q93 0 142 74v-147q-53 -60 -144 -60q-59 0 -159 34 t-158 34q-87 0 -137 -74zM307 553h199v745q0 83 -18.5 106t-81.5 23t-81 -23t-18 -106v-745z" />
<glyph unicode="&#xc4;" d="M78 0v1298q0 77 5.5 129t21 91.5t37.5 61.5t62 36t86 18t118 4q71 0 118 -5t87 -19t62.5 -36.5t38.5 -62t21.5 -91t5.5 -126.5v-1298h-235v360h-199v-360h-229zM121 1796v213h207v-213h-207zM307 553h199v745q0 83 -18.5 106t-81.5 23t-81 -23t-18 -106v-745zM489 1796 v213h209v-213h-209z" />
<glyph unicode="&#xc5;" d="M78 0v1298q0 77 5.5 129t21 91.5t37.5 61.5t62 36t86 18t118 4q71 0 118 -5t87 -19t62.5 -36.5t38.5 -62t21.5 -91t5.5 -126.5v-1298h-235v360h-199v-360h-229zM244 1819v82q0 90 31 114.5t135 24.5q105 0 136.5 -24.5t31.5 -114.5v-82q0 -90 -31.5 -115t-136.5 -25 q-104 0 -135 25t-31 115zM307 553h199v745q0 83 -18.5 106t-81.5 23t-81 -23t-18 -106v-745zM330 1827q0 -39 14.5 -49.5t65.5 -10.5q52 0 67 10.5t15 49.5v65q0 39 -15 49.5t-67 10.5q-51 0 -65.5 -10.5t-14.5 -49.5v-65z" />
<glyph unicode="&#xc6;" horiz-adv-x="999" d="M78 0v1288q0 78 5 129.5t21.5 89.5t37.5 59t62 33t85.5 15.5t118.5 3.5h495v-197h-219v-233h213v-189h-213v-798h221v-201h-450v360h-148v-360h-229zM307 553h148v868h-49q-64 0 -81.5 -21.5t-17.5 -103.5v-743z" />
<glyph unicode="&#xc7;" horiz-adv-x="808" d="M74 322v976q0 76 6 128.5t22 91.5t39 61.5t63.5 36t87 18t118.5 4.5q71 0 116.5 -4t85 -18t60.5 -36t36.5 -61.5t21 -91.5t5.5 -129v-366h-227v366q0 83 -17.5 106t-80.5 23q-64 0 -82.5 -25t-18.5 -104v-976q0 -85 18.5 -109.5t82.5 -24.5q63 0 80.5 24.5t17.5 109.5 v374h227v-374q0 -78 -5.5 -130t-21 -92t-36.5 -62t-60.5 -36t-85 -18t-116.5 -4q-75 0 -122.5 4t-88 18t-62.5 36t-37.5 62t-20.5 92t-5 130zM207 -379l104 338h209l-168 -338h-145z" />
<glyph unicode="&#xc8;" horiz-adv-x="602" d="M82 2040h225l129 -340h-157zM90 0v1618h461v-195h-225v-235h219v-187h-219v-798h227v-203h-463z" />
<glyph unicode="&#xc9;" horiz-adv-x="602" d="M90 0v1618h461v-195h-225v-235h219v-187h-219v-798h227v-203h-463zM205 1700l129 340h225l-194 -340h-160z" />
<glyph unicode="&#xca;" horiz-adv-x="602" d="M25 1700l208 340h179l206 -340h-147l-149 223l-150 -223h-147zM90 0v1618h461v-195h-225v-235h219v-187h-219v-798h227v-203h-463z" />
<glyph unicode="&#xcb;" horiz-adv-x="602" d="M33 1796v213h207v-213h-207zM90 0v1618h461v-195h-225v-235h219v-187h-219v-798h227v-203h-463zM401 1796v213h209v-213h-209z" />
<glyph unicode="&#xcc;" horiz-adv-x="425" d="M-25 2040h226l129 -340h-158zM94 0v1618h236v-1618h-236z" />
<glyph unicode="&#xcd;" horiz-adv-x="425" d="M94 0v1618h236v-1618h-236zM96 1700l129 340h226l-195 -340h-160z" />
<glyph unicode="&#xce;" horiz-adv-x="425" d="M-84 1700l209 340h178l207 -340h-148l-149 223l-150 -223h-147zM94 0v1618h236v-1618h-236z" />
<glyph unicode="&#xcf;" horiz-adv-x="425" d="M-76 1796v213h207v-213h-207zM94 0v1618h236v-1618h-236zM293 1796v213h209v-213h-209z" />
<glyph unicode="&#xd0;" horiz-adv-x="882" d="M78 1001v187h55v430h338q75 0 122.5 -4t88 -17.5t62.5 -35t37.5 -60t20.5 -88.5t5 -125v-956q0 -75 -5 -125t-20.5 -89t-37.5 -60.5t-62.5 -35.5t-88.5 -18t-122 -4h-338v1001h-55zM362 205h115q65 0 84 23t19 104v956q0 80 -19.5 103.5t-83.5 23.5h-115v-227h111v-187 h-111v-796z" />
<glyph unicode="&#xd1;" horiz-adv-x="888" d="M90 0v1618h260l234 -1038h8v1038h205v-1618h-252l-244 1010h-8v-1010h-203zM145 1798v150q57 53 140 53q57 0 158 -32t159 -32q92 0 141 74v-147q-53 -60 -143 -60q-58 0 -158 34t-159 34q-88 0 -138 -74z" />
<glyph unicode="&#xd2;" d="M74 322v976q0 78 5 129.5t20.5 91.5t37.5 61.5t62.5 35.5t88 18t122.5 4t122.5 -4t88.5 -18t63 -35.5t38 -61.5t21 -91.5t5 -129.5v-976q0 -78 -5 -130t-21 -92t-38 -62t-63 -36t-88.5 -18t-122.5 -4t-122.5 4t-88 18t-62.5 36t-37.5 62t-20.5 92t-5 130zM172 2040h225 l129 -340h-157zM309 322q0 -85 18.5 -109.5t82.5 -24.5q65 0 82.5 25t17.5 109v976q0 83 -17.5 106t-82.5 23q-64 0 -82.5 -25t-18.5 -104v-976z" />
<glyph unicode="&#xd3;" d="M74 322v976q0 78 5 129.5t20.5 91.5t37.5 61.5t62.5 35.5t88 18t122.5 4t122.5 -4t88.5 -18t63 -35.5t38 -61.5t21 -91.5t5 -129.5v-976q0 -78 -5 -130t-21 -92t-38 -62t-63 -36t-88.5 -18t-122.5 -4t-122.5 4t-88 18t-62.5 36t-37.5 62t-20.5 92t-5 130zM295 1700 l129 340h225l-194 -340h-160zM309 322q0 -85 18.5 -109.5t82.5 -24.5q65 0 82.5 25t17.5 109v976q0 83 -17.5 106t-82.5 23q-64 0 -82.5 -25t-18.5 -104v-976z" />
<glyph unicode="&#xd4;" d="M74 322v976q0 78 5 129.5t20.5 91.5t37.5 61.5t62.5 35.5t88 18t122.5 4t122.5 -4t88.5 -18t63 -35.5t38 -61.5t21 -91.5t5 -129.5v-976q0 -78 -5 -130t-21 -92t-38 -62t-63 -36t-88.5 -18t-122.5 -4t-122.5 4t-88 18t-62.5 36t-37.5 62t-20.5 92t-5 130zM113 1700 l209 340h178l207 -340h-148l-149 223l-150 -223h-147zM309 322q0 -85 18.5 -109.5t82.5 -24.5q65 0 82.5 25t17.5 109v976q0 83 -17.5 106t-82.5 23q-64 0 -82.5 -25t-18.5 -104v-976z" />
<glyph unicode="&#xd5;" d="M74 322v976q0 78 5 129.5t20.5 91.5t37.5 61.5t62.5 35.5t88 18t122.5 4t122.5 -4t88.5 -18t63 -35.5t38 -61.5t21 -91.5t5 -129.5v-976q0 -78 -5 -130t-21 -92t-38 -62t-63 -36t-88.5 -18t-122.5 -4t-122.5 4t-88 18t-62.5 36t-37.5 62t-20.5 92t-5 130zM111 1798v150 q57 53 139 53q58 0 159 -32t158 -32q93 0 142 74v-147q-53 -60 -144 -60q-59 0 -159 34t-158 34q-87 0 -137 -74zM309 322q0 -85 18.5 -109.5t82.5 -24.5q65 0 82.5 25t17.5 109v976q0 83 -17.5 106t-82.5 23q-64 0 -82.5 -25t-18.5 -104v-976z" />
<glyph unicode="&#xd6;" d="M74 322v976q0 78 5 129.5t20.5 91.5t37.5 61.5t62.5 35.5t88 18t122.5 4t122.5 -4t88.5 -18t63 -35.5t38 -61.5t21 -91.5t5 -129.5v-976q0 -78 -5 -130t-21 -92t-38 -62t-63 -36t-88.5 -18t-122.5 -4t-122.5 4t-88 18t-62.5 36t-37.5 62t-20.5 92t-5 130zM121 1796v213 h207v-213h-207zM309 322q0 -85 18.5 -109.5t82.5 -24.5q65 0 82.5 25t17.5 109v976q0 83 -17.5 106t-82.5 23q-64 0 -82.5 -25t-18.5 -104v-976zM489 1796v213h209v-213h-209z" />
<glyph unicode="&#xd7;" horiz-adv-x="989" d="M133 588l232 231l-230 228l129 131l232 -230l227 230l131 -131l-229 -228l229 -231l-131 -131l-227 231l-232 -231z" />
<glyph unicode="&#xd8;" d="M74 -141l53 190q-30 35 -41.5 99.5t-11.5 173.5v976q0 78 5 129.5t20.5 91.5t37.5 61.5t62.5 35.5t88 18t122.5 4q100 0 157 -8l37 131h144l-54 -192q54 -65 54 -271v-976q0 -78 -5 -130t-21 -92t-38 -62t-63 -36t-88.5 -18t-122.5 -4q-86 0 -158 10l-35 -131h-143z M309 702l191 687q-9 22 -28.5 30t-61.5 8q-64 0 -82.5 -25t-18.5 -104v-596zM319 225q9 -22 29.5 -29.5t61.5 -7.5q65 0 82.5 25t17.5 109v587z" />
<glyph unicode="&#xd9;" horiz-adv-x="829" d="M82 322v1296h235v-1296q0 -84 19 -108t84 -24q62 0 80 24t18 108v1296h230v-1296q0 -78 -5.5 -130t-21 -92t-37.5 -62t-62.5 -36t-87 -18t-118.5 -4t-119 4t-87.5 18t-62.5 36t-38 61.5t-21.5 92t-5.5 130.5zM176 2040h225l129 -340h-157z" />
<glyph unicode="&#xda;" horiz-adv-x="829" d="M82 322v1296h235v-1296q0 -84 19 -108t84 -24q62 0 80 24t18 108v1296h230v-1296q0 -78 -5.5 -130t-21 -92t-37.5 -62t-62.5 -36t-87 -18t-118.5 -4t-119 4t-87.5 18t-62.5 36t-38 61.5t-21.5 92t-5.5 130.5zM299 1700l129 340h225l-194 -340h-160z" />
<glyph unicode="&#xdb;" horiz-adv-x="829" d="M82 322v1296h235v-1296q0 -84 19 -108t84 -24q62 0 80 24t18 108v1296h230v-1296q0 -78 -5.5 -130t-21 -92t-37.5 -62t-62.5 -36t-87 -18t-118.5 -4t-119 4t-87.5 18t-62.5 36t-38 61.5t-21.5 92t-5.5 130.5zM117 1700l209 340h178l207 -340h-148l-149 223l-150 -223 h-147z" />
<glyph unicode="&#xdc;" horiz-adv-x="829" d="M82 322v1296h235v-1296q0 -84 19 -108t84 -24q62 0 80 24t18 108v1296h230v-1296q0 -78 -5.5 -130t-21 -92t-37.5 -62t-62.5 -36t-87 -18t-118.5 -4t-119 4t-87.5 18t-62.5 36t-38 61.5t-21.5 92t-5.5 130.5zM125 1796v213h207v-213h-207zM494 1796v213h208v-213h-208z " />
<glyph unicode="&#xdd;" horiz-adv-x="724" d="M6 1618h234l116 -731h9l122 731h230l-242 -1047v-571h-235v571zM246 1700l129 340h225l-194 -340h-160z" />
<glyph unicode="&#xde;" horiz-adv-x="813" d="M90 0v1618h236v-236h100q75 0 122.5 -4t88.5 -17.5t63 -34.5t38 -59.5t21 -88.5t5 -125v-346q0 -75 -5 -125t-21 -88.5t-38 -60t-63 -35t-88.5 -17.5t-122.5 -4h-100v-377h-236zM326 567h100q65 0 82.5 22.5t17.5 108.5v355q0 82 -18 103.5t-82 21.5h-100v-611z" />
<glyph unicode="&#xdf;" horiz-adv-x="808" d="M78 0v1370q0 155 70 211.5t233 56.5q96 0 155.5 -11t102.5 -40.5t60.5 -81.5t17.5 -135v-268q0 -61 -11 -103.5t-31.5 -65.5t-41 -34t-49.5 -18v-9q75 -15 115 -68.5t40 -182.5v-304q0 -81 -8 -133t-26 -90t-53 -57.5t-83.5 -28t-124.5 -8.5h-106v209h80q51 0 71.5 23 t20.5 85v345q0 67 -21 88.5t-83 21.5h-76v209h59q59 0 78.5 21.5t19.5 78.5v279q0 63 -18 82.5t-80 19.5q-64 0 -83 -20t-19 -82v-1360h-209z" />
<glyph unicode="&#xe0;" horiz-adv-x="727" d="M74 217v297q0 112 43 162.5t143 50.5h39q109 0 141 -18v254q0 67 -16.5 86.5t-75.5 19.5q-54 0 -69 -21t-15 -85v-121h-190v145q0 59 4.5 99t17 70t30.5 47t51.5 27.5t72 13.5t98.5 3q65 0 107 -3t77.5 -13.5t55 -27.5t33 -47t18 -70t4.5 -99v-987q-82 -20 -311 -20 q-84 0 -129.5 7.5t-77 33.5t-41.5 71t-10 125zM125 1649h225l129 -340h-157zM264 268q0 -74 14 -95t70 -21q76 0 92 4v401q-22 12 -90 12q-57 0 -71.5 -20.5t-14.5 -87.5v-193z" />
<glyph unicode="&#xe1;" horiz-adv-x="727" d="M74 217v297q0 112 43 162.5t143 50.5h39q109 0 141 -18v254q0 67 -16.5 86.5t-75.5 19.5q-54 0 -69 -21t-15 -85v-121h-190v145q0 59 4.5 99t17 70t30.5 47t51.5 27.5t72 13.5t98.5 3q65 0 107 -3t77.5 -13.5t55 -27.5t33 -47t18 -70t4.5 -99v-987q-82 -20 -311 -20 q-84 0 -129.5 7.5t-77 33.5t-41.5 71t-10 125zM248 1309l129 340h225l-194 -340h-160zM264 268q0 -74 14 -95t70 -21q76 0 92 4v401q-22 12 -90 12q-57 0 -71.5 -20.5t-14.5 -87.5v-193z" />
<glyph unicode="&#xe2;" horiz-adv-x="727" d="M66 1309l208 340h179l206 -340h-147l-150 223l-149 -223h-147zM74 217v297q0 112 43 162.5t143 50.5h39q109 0 141 -18v254q0 67 -16.5 86.5t-75.5 19.5q-54 0 -69 -21t-15 -85v-121h-190v145q0 59 4.5 99t17 70t30.5 47t51.5 27.5t72 13.5t98.5 3q65 0 107 -3 t77.5 -13.5t55 -27.5t33 -47t18 -70t4.5 -99v-987q-82 -20 -311 -20q-84 0 -129.5 7.5t-77 33.5t-41.5 71t-10 125zM264 268q0 -74 14 -95t70 -21q76 0 92 4v401q-22 12 -90 12q-57 0 -71.5 -20.5t-14.5 -87.5v-193z" />
<glyph unicode="&#xe3;" horiz-adv-x="727" d="M66 1407v149q58 54 139 54q57 0 158 -32t159 -32q93 0 142 74v-147q-53 -60 -144 -60q-58 0 -158 34t-159 34q-87 0 -137 -74zM74 217v297q0 112 43 162.5t143 50.5h39q109 0 141 -18v254q0 67 -16.5 86.5t-75.5 19.5q-54 0 -69 -21t-15 -85v-121h-190v145q0 59 4.5 99 t17 70t30.5 47t51.5 27.5t72 13.5t98.5 3q65 0 107 -3t77.5 -13.5t55 -27.5t33 -47t18 -70t4.5 -99v-987q-82 -20 -311 -20q-84 0 -129.5 7.5t-77 33.5t-41.5 71t-10 125zM264 268q0 -74 14 -95t70 -21q76 0 92 4v401q-22 12 -90 12q-57 0 -71.5 -20.5t-14.5 -87.5v-193z " />
<glyph unicode="&#xe4;" horiz-adv-x="727" d="M74 217v297q0 112 43 162.5t143 50.5h39q109 0 141 -18v254q0 67 -16.5 86.5t-75.5 19.5q-54 0 -69 -21t-15 -85v-121h-190v145q0 59 4.5 99t17 70t30.5 47t51.5 27.5t72 13.5t98.5 3q65 0 107 -3t77.5 -13.5t55 -27.5t33 -47t18 -70t4.5 -99v-987q-82 -20 -311 -20 q-84 0 -129.5 7.5t-77 33.5t-41.5 71t-10 125zM76 1405v213h207v-213h-207zM264 268q0 -74 14 -95t70 -21q76 0 92 4v401q-22 12 -90 12q-57 0 -71.5 -20.5t-14.5 -87.5v-193zM444 1405v213h209v-213h-209z" />
<glyph unicode="&#xe5;" horiz-adv-x="727" d="M74 217v297q0 112 43 162.5t143 50.5h39q109 0 141 -18v254q0 67 -16.5 86.5t-75.5 19.5q-54 0 -69 -21t-15 -85v-121h-190v145q0 59 4.5 99t17 70t30.5 47t51.5 27.5t72 13.5t98.5 3q65 0 107 -3t77.5 -13.5t55 -27.5t33 -47t18 -70t4.5 -99v-987q-82 -20 -311 -20 q-84 0 -129.5 7.5t-77 33.5t-41.5 71t-10 125zM197 1427v82q0 90 31 115t134 25q105 0 136.5 -25t31.5 -115v-82q0 -90 -31.5 -114.5t-136.5 -24.5q-104 0 -134.5 24.5t-30.5 114.5zM264 268q0 -74 14 -95t70 -21q76 0 92 4v401q-22 12 -90 12q-57 0 -71.5 -20.5 t-14.5 -87.5v-193zM283 1436q0 -39 14.5 -49.5t64.5 -10.5q52 0 67 10.5t15 49.5v65q0 39 -15 49.5t-67 10.5q-50 0 -64.5 -10.5t-14.5 -49.5v-65z" />
<glyph unicode="&#xe6;" horiz-adv-x="1087" d="M74 217v297q0 112 43 162.5t143 50.5h39q109 0 141 -18v254q0 67 -16.5 86.5t-75.5 19.5q-54 0 -69 -21t-15 -85v-121h-190v145q0 59 4.5 99t17 70t30.5 47t51.5 27.5t72 13.5t98.5 3q140 0 193 -63q53 63 192 63q61 0 100 -3t72.5 -13.5t51.5 -27.5t31 -47t17.5 -70 t4.5 -99v-446h-367v-295q0 -49 17 -68.5t73 -19.5t71 17.5t15 76.5v166h191v-178q0 -59 -4.5 -99t-17.5 -70t-31 -47t-51.5 -27.5t-72.5 -13.5t-100 -3q-151 5 -194 61q-52 -61 -203 -61q-68 0 -109.5 5t-74 18.5t-48 41t-23 68t-7.5 104.5zM264 268q0 -74 14 -95t72 -21 q56 0 73 18t17 70v317q-22 12 -90 12q-57 0 -71.5 -20.5t-14.5 -87.5v-193zM643 707h176v264q0 57 -16 74.5t-70 17.5q-58 0 -74 -17t-16 -75v-264z" />
<glyph unicode="&#xe7;" horiz-adv-x="714" d="M74 240v747q0 88 11 137t46.5 78t87.5 37t148 8q91 0 141.5 -9t82.5 -39.5t42 -78t10 -133.5v-215h-190v193q0 54 -16 70t-70 16q-59 0 -75 -16t-16 -70v-705q0 -54 17 -71t74 -17q53 0 69.5 18.5t16.5 69.5v318h190v-338q0 -59 -5 -99.5t-18.5 -70.5t-32 -47t-52 -27 t-71.5 -13t-97 -3q-65 0 -107 3.5t-77 14.5t-54.5 27.5t-32.5 47t-17.5 69.5t-4.5 98zM143 -379l105 338h209l-168 -338h-146z" />
<glyph unicode="&#xe8;" horiz-adv-x="718" d="M74 240v747q0 59 4.5 99t18 70t32.5 47t55 27.5t77 13.5t106 3q61 0 99.5 -3t72.5 -13.5t51.5 -27.5t30.5 -47t17.5 -70t4.5 -99v-446h-364v-289q0 -59 16 -76.5t72 -17.5q55 0 71.5 17.5t16.5 76.5v166h188v-178q0 -59 -4.5 -99t-17.5 -70t-30.5 -47t-51.5 -27.5 t-72.5 -13.5t-99.5 -3q-65 0 -106 3t-77 13.5t-55 27.5t-32.5 47t-18 70t-4.5 99zM121 1649h225l129 -340h-158zM279 709h176v262q0 58 -16 75t-72 17q-57 0 -72.5 -16.5t-15.5 -75.5v-262z" />
<glyph unicode="&#xe9;" horiz-adv-x="718" d="M74 240v747q0 59 4.5 99t18 70t32.5 47t55 27.5t77 13.5t106 3q61 0 99.5 -3t72.5 -13.5t51.5 -27.5t30.5 -47t17.5 -70t4.5 -99v-446h-364v-289q0 -59 16 -76.5t72 -17.5q55 0 71.5 17.5t16.5 76.5v166h188v-178q0 -59 -4.5 -99t-17.5 -70t-30.5 -47t-51.5 -27.5 t-72.5 -13.5t-99.5 -3q-65 0 -106 3t-77 13.5t-55 27.5t-32.5 47t-18 70t-4.5 99zM244 1309l129 340h225l-195 -340h-159zM279 709h176v262q0 58 -16 75t-72 17q-57 0 -72.5 -16.5t-15.5 -75.5v-262z" />
<glyph unicode="&#xea;" horiz-adv-x="718" d="M61 1309l209 340h179l206 -340h-147l-150 223l-149 -223h-148zM74 240v747q0 59 4.5 99t18 70t32.5 47t55 27.5t77 13.5t106 3q61 0 99.5 -3t72.5 -13.5t51.5 -27.5t30.5 -47t17.5 -70t4.5 -99v-446h-364v-289q0 -59 16 -76.5t72 -17.5q55 0 71.5 17.5t16.5 76.5v166h188 v-178q0 -59 -4.5 -99t-17.5 -70t-30.5 -47t-51.5 -27.5t-72.5 -13.5t-99.5 -3q-65 0 -106 3t-77 13.5t-55 27.5t-32.5 47t-18 70t-4.5 99zM279 709h176v262q0 58 -16 75t-72 17q-57 0 -72.5 -16.5t-15.5 -75.5v-262z" />
<glyph unicode="&#xeb;" horiz-adv-x="718" d="M72 1405v213h207v-213h-207zM74 240v747q0 59 4.5 99t18 70t32.5 47t55 27.5t77 13.5t106 3q61 0 99.5 -3t72.5 -13.5t51.5 -27.5t30.5 -47t17.5 -70t4.5 -99v-446h-364v-289q0 -59 16 -76.5t72 -17.5q55 0 71.5 17.5t16.5 76.5v166h188v-178q0 -59 -4.5 -99t-17.5 -70 t-30.5 -47t-51.5 -27.5t-72.5 -13.5t-99.5 -3q-65 0 -106 3t-77 13.5t-55 27.5t-32.5 47t-18 70t-4.5 99zM279 709h176v262q0 58 -16 75t-72 17q-57 0 -72.5 -16.5t-15.5 -75.5v-262zM440 1405v213h209v-213h-209z" />
<glyph unicode="&#xec;" horiz-adv-x="411" d="M-25 1649h226l129 -340h-158zM109 0v1227h206v-1227h-206z" />
<glyph unicode="&#xed;" horiz-adv-x="432" d="M82 1309l129 340h225l-194 -340h-160zM94 0v1227h207v-1227h-207z" />
<glyph unicode="&#xee;" horiz-adv-x="544" d="M-25 1309l209 340h178l207 -340h-147l-150 223l-149 -223h-148zM168 0v1227h207v-1227h-207z" />
<glyph unicode="&#xef;" horiz-adv-x="579" d="M0 1405v213h207v-213h-207zM184 0v1227h207v-1227h-207zM369 1405v213h209v-213h-209z" />
<glyph unicode="&#xf0;" horiz-adv-x="737" d="M76 240v616q0 125 35.5 180.5t124.5 55.5q60 0 96.5 -15.5t85.5 -58.5q-15 38 -70 135l-61 109l-150 -84l-51 98l145 80l-149 262h229l92 -166l140 78l51 -96l-137 -76l73 -129q84 -150 108 -233.5t24 -211.5v-544q0 -59 -4.5 -99t-18 -70t-32.5 -47t-55 -27.5t-77 -13.5 t-106 -3t-106 3t-77 13.5t-55 27.5t-32.5 47t-18 70t-4.5 99zM281 319q0 -97 12.5 -122t75.5 -25q57 0 73.5 27.5t16.5 117.5v510q-15 60 -35 84.5t-70 24.5q-22 0 -36 -6.5t-21.5 -14.5t-11 -30t-4 -37t-0.5 -51v-478z" />
<glyph unicode="&#xf1;" horiz-adv-x="778" d="M90 0v1227h195v-82q48 92 192 92q125 0 171 -53t46 -197v-987h-209v965q0 48 -19 66t-71 18q-70 0 -96 -64v-985h-209zM90 1407v149q58 54 139 54q57 0 158.5 -32t159.5 -32q92 0 141 74v-147q-53 -60 -143 -60q-58 0 -158.5 34t-159.5 34q-87 0 -137 -74z" />
<glyph unicode="&#xf2;" horiz-adv-x="735" d="M74 240v747q0 59 4.5 99t18 70t32.5 47t55 27.5t77 13.5t106 3q64 0 105 -3t76.5 -13.5t54.5 -27.5t33 -47t18.5 -70t4.5 -99v-747q0 -59 -4.5 -99t-18.5 -70t-33 -47t-54.5 -27.5t-76.5 -13.5t-105 -3q-65 0 -106 3t-77 13.5t-55 27.5t-32.5 47t-18 70t-4.5 99z M129 1649h225l129 -340h-157zM276 260q0 -54 17 -71t74 -17q56 0 73 18t17 70v705q0 54 -16.5 70t-73.5 16q-56 0 -73.5 -17t-17.5 -69v-705z" />
<glyph unicode="&#xf3;" horiz-adv-x="735" d="M74 240v747q0 59 4.5 99t18 70t32.5 47t55 27.5t77 13.5t106 3q64 0 105 -3t76.5 -13.5t54.5 -27.5t33 -47t18.5 -70t4.5 -99v-747q0 -59 -4.5 -99t-18.5 -70t-33 -47t-54.5 -27.5t-76.5 -13.5t-105 -3q-65 0 -106 3t-77 13.5t-55 27.5t-32.5 47t-18 70t-4.5 99z M252 1309l129 340h225l-194 -340h-160zM276 260q0 -54 17 -71t74 -17q56 0 73 18t17 70v705q0 54 -16.5 70t-73.5 16q-56 0 -73.5 -17t-17.5 -69v-705z" />
<glyph unicode="&#xf4;" horiz-adv-x="735" d="M70 1309l209 340h178l207 -340h-148l-149 223l-150 -223h-147zM74 240v747q0 59 4.5 99t18 70t32.5 47t55 27.5t77 13.5t106 3q64 0 105 -3t76.5 -13.5t54.5 -27.5t33 -47t18.5 -70t4.5 -99v-747q0 -59 -4.5 -99t-18.5 -70t-33 -47t-54.5 -27.5t-76.5 -13.5t-105 -3 q-65 0 -106 3t-77 13.5t-55 27.5t-32.5 47t-18 70t-4.5 99zM276 260q0 -54 17 -71t74 -17q56 0 73 18t17 70v705q0 54 -16.5 70t-73.5 16q-56 0 -73.5 -17t-17.5 -69v-705z" />
<glyph unicode="&#xf5;" horiz-adv-x="735" d="M70 1407v149q58 54 139 54q57 0 158 -32t159 -32q93 0 142 74v-147q-53 -60 -144 -60q-58 0 -158 34t-159 34q-87 0 -137 -74zM74 240v747q0 59 4.5 99t18 70t32.5 47t55 27.5t77 13.5t106 3q64 0 105 -3t76.5 -13.5t54.5 -27.5t33 -47t18.5 -70t4.5 -99v-747 q0 -59 -4.5 -99t-18.5 -70t-33 -47t-54.5 -27.5t-76.5 -13.5t-105 -3q-65 0 -106 3t-77 13.5t-55 27.5t-32.5 47t-18 70t-4.5 99zM276 260q0 -54 17 -71t74 -17q56 0 73 18t17 70v705q0 54 -16.5 70t-73.5 16q-56 0 -73.5 -17t-17.5 -69v-705z" />
<glyph unicode="&#xf6;" horiz-adv-x="735" d="M74 240v747q0 59 4.5 99t18 70t32.5 47t55 27.5t77 13.5t106 3q64 0 105 -3t76.5 -13.5t54.5 -27.5t33 -47t18.5 -70t4.5 -99v-747q0 -59 -4.5 -99t-18.5 -70t-33 -47t-54.5 -27.5t-76.5 -13.5t-105 -3q-65 0 -106 3t-77 13.5t-55 27.5t-32.5 47t-18 70t-4.5 99zM80 1405 v213h207v-213h-207zM276 260q0 -54 17 -71t74 -17q56 0 73 18t17 70v705q0 54 -16.5 70t-73.5 16q-56 0 -73.5 -17t-17.5 -69v-705zM449 1405v213h208v-213h-208z" />
<glyph unicode="&#xf7;" horiz-adv-x="1015" d="M90 725v186h834v-186h-834zM399 250v270h215v-270h-215zM399 1116v270h215v-270h-215z" />
<glyph unicode="&#xf8;" horiz-adv-x="735" d="M74 -141l49 170q-28 27 -38.5 75.5t-10.5 135.5v747q0 59 4.5 99t18 70t32.5 47t55 27.5t77 13.5t106 3q44 0 110 -4l37 125h145l-51 -172q28 -27 39.5 -75.5t11.5 -133.5v-747q0 -59 -4.5 -99t-18.5 -70t-33 -47t-54.5 -27.5t-76.5 -13.5t-105 -3q-49 0 -111 4l-37 -125 h-145zM276 553l144 491q-24 7 -53 7q-56 0 -73.5 -17t-17.5 -69v-412zM311 176q14 -4 56 -4q56 0 73 18t17 70v412z" />
<glyph unicode="&#xf9;" horiz-adv-x="772" d="M82 240v987h209v-967q0 -46 17.5 -65t68.5 -19q68 0 94 64v987h211v-1227h-197v80q-47 -90 -188 -90q-125 0 -170 52t-45 198zM147 1649h226l129 -340h-158z" />
<glyph unicode="&#xfa;" horiz-adv-x="772" d="M82 240v987h209v-967q0 -46 17.5 -65t68.5 -19q68 0 94 64v987h211v-1227h-197v80q-47 -90 -188 -90q-125 0 -170 52t-45 198zM270 1309l129 340h226l-195 -340h-160z" />
<glyph unicode="&#xfb;" horiz-adv-x="772" d="M82 240v987h209v-967q0 -46 17.5 -65t68.5 -19q68 0 94 64v987h211v-1227h-197v80q-47 -90 -188 -90q-125 0 -170 52t-45 198zM88 1309l209 340h178l207 -340h-147l-150 223l-149 -223h-148z" />
<glyph unicode="&#xfc;" horiz-adv-x="772" d="M82 240v987h209v-967q0 -46 17.5 -65t68.5 -19q68 0 94 64v987h211v-1227h-197v80q-47 -90 -188 -90q-125 0 -170 52t-45 198zM96 1405v213h207v-213h-207zM465 1405v213h209v-213h-209z" />
<glyph unicode="&#xfd;" horiz-adv-x="778" d="M82 303v924h209v-885q0 -60 20 -81t74 -21q63 0 92 63v924h209v-1247q0 -152 -67 -222.5t-220 -70.5h-274v176h223q70 0 97.5 24.5t27.5 92.5v157q-49 -84 -180 -84q-122 0 -166.5 52t-44.5 198zM272 1309l129 340h226l-195 -340h-160z" />
<glyph unicode="&#xfe;" horiz-adv-x="751" d="M90 -313v1931h209v-467q50 86 178 86q120 0 159.5 -51.5t39.5 -198.5v-747q0 -148 -39.5 -199t-159.5 -51q-129 0 -178 84v-387h-209zM293 240q26 -64 92 -64q53 0 70.5 21t17.5 82v667q0 61 -17.5 82t-70.5 21q-66 0 -92 -64v-745z" />
<glyph unicode="&#xff;" horiz-adv-x="778" d="M82 303v924h209v-885q0 -60 20 -81t74 -21q63 0 92 63v924h209v-1247q0 -152 -67 -222.5t-220 -70.5h-274v176h223q70 0 97.5 24.5t27.5 92.5v157q-49 -84 -180 -84q-122 0 -166.5 52t-44.5 198zM100 1405v213h207v-213h-207zM469 1405v213h209v-213h-209z" />
<glyph unicode="&#x152;" horiz-adv-x="1034" d="M74 332v956q0 75 5 125t20.5 88.5t37.5 60t62.5 35t88 17.5t122.5 4h530v-197h-225v-233h217v-189h-217v-798h225v-201h-530q-74 0 -122 4t-88.5 18t-62.5 35.5t-37.5 60.5t-20.5 89t-5 125zM309 332q0 -82 18.5 -105.5t82.5 -23.5h75v1210h-75q-64 0 -82.5 -22.5 t-18.5 -102.5v-956z" />
<glyph unicode="&#x153;" horiz-adv-x="1099" d="M74 240v747q0 59 4.5 99t18 70t32.5 47t55 27.5t77 13.5t106 3q136 0 190 -65q54 65 193 65q61 0 99.5 -3t72.5 -13.5t51.5 -27.5t30.5 -47t17.5 -70t4.5 -99v-446h-367v-295q0 -55 17.5 -71.5t73.5 -16.5t72 17t16 77v166h188v-178q0 -59 -4.5 -99t-17.5 -70t-30.5 -47 t-51.5 -27.5t-72.5 -13.5t-99.5 -3q-147 0 -195 61q-52 -61 -188 -61q-65 0 -106 3t-77 13.5t-55 27.5t-32.5 47t-18 70t-4.5 99zM276 260q0 -54 17 -71t74 -17q56 0 73 18t17 70v705q0 54 -16.5 70t-73.5 16q-56 0 -73.5 -17t-17.5 -69v-705zM659 707h179v264 q0 57 -16.5 74.5t-71.5 17.5q-54 0 -72.5 -17.5t-18.5 -68.5v-270z" />
<glyph unicode="&#x178;" horiz-adv-x="724" d="M6 1618h234l116 -731h9l122 731h230l-242 -1047v-571h-235v571zM74 1796v213h207v-213h-207zM442 1796v213h209v-213h-209z" />
<glyph unicode="&#x2c6;" horiz-adv-x="655" d="M29 1309l209 340h178l207 -340h-148l-149 223l-150 -223h-147z" />
<glyph unicode="&#x2dc;" horiz-adv-x="788" d="M94 1407v149q58 54 139 54q57 0 159 -32t159 -32q92 0 141 74v-147q-53 -60 -143 -60q-59 0 -159 34t-159 34q-87 0 -137 -74z" />
<glyph unicode="&#x2000;" horiz-adv-x="1020" />
<glyph unicode="&#x2001;" horiz-adv-x="2040" />
<glyph unicode="&#x2002;" horiz-adv-x="1020" />
<glyph unicode="&#x2003;" horiz-adv-x="2040" />
<glyph unicode="&#x2004;" horiz-adv-x="680" />
<glyph unicode="&#x2005;" horiz-adv-x="510" />
<glyph unicode="&#x2006;" horiz-adv-x="340" />
<glyph unicode="&#x2007;" horiz-adv-x="340" />
<glyph unicode="&#x2008;" horiz-adv-x="255" />
<glyph unicode="&#x2009;" horiz-adv-x="408" />
<glyph unicode="&#x200a;" horiz-adv-x="113" />
<glyph unicode="&#x2010;" horiz-adv-x="421" d="M43 590v184h334v-184h-334z" />
<glyph unicode="&#x2011;" horiz-adv-x="421" d="M43 590v184h334v-184h-334z" />
<glyph unicode="&#x2012;" horiz-adv-x="421" d="M43 590v184h334v-184h-334z" />
<glyph unicode="&#x2013;" horiz-adv-x="727" d="M43 590v184h641v-184h-641z" />
<glyph unicode="&#x2014;" horiz-adv-x="1191" d="M43 590v184h1106v-184h-1106z" />
<glyph unicode="&#x2018;" horiz-adv-x="395" d="M90 1319v256q0 61 7 99.5t27.5 70t61 45.5t103.5 14h16v-96h-26q-36 0 -51 -21t-15 -75v-25h92v-268h-215z" />
<glyph unicode="&#x2019;" horiz-adv-x="395" d="M90 1278v96h27q33 0 49 17.5t16 58.5v45h-92v270h215v-309q0 -88 -45 -133t-147 -45h-23z" />
<glyph unicode="&#x201a;" horiz-adv-x="395" d="M90 0v270h215v-309q0 -88 -45 -133t-147 -45h-23v96h27q33 0 49 17.5t16 58.5v45h-92z" />
<glyph unicode="&#x201c;" horiz-adv-x="790" d="M90 1319v256q0 61 7 99.5t27.5 70t61 45.5t103.5 14h16v-96h-26q-36 0 -51 -21t-15 -75v-25h92v-268h-215zM485 1319v256q0 61 7 99.5t27.5 70t61 45.5t103.5 14h16v-96h-26q-36 0 -51 -21t-15 -75v-25h92v-268h-215z" />
<glyph unicode="&#x201d;" horiz-adv-x="790" d="M90 1278v96h27q33 0 49 17.5t16 58.5v45h-92v270h215v-309q0 -88 -45 -133t-147 -45h-23zM485 1278v96h27q34 0 50 17.5t16 58.5v45h-93v270h215v-309q0 -88 -45 -133t-147 -45h-23z" />
<glyph unicode="&#x201e;" horiz-adv-x="790" d="M90 0v270h215v-309q0 -88 -45 -133t-147 -45h-23v96h27q33 0 49 17.5t16 58.5v45h-92zM485 0v270h215v-309q0 -88 -45 -133t-147 -45h-23v96h27q34 0 50 17.5t16 58.5v45h-93z" />
<glyph unicode="&#x2022;" horiz-adv-x="663" d="M78 846v59q0 80 10 124.5t41.5 70t76 32.5t128.5 7q56 0 91.5 -3t66.5 -12t47.5 -24t28.5 -42.5t16 -63t4 -89.5v-59q0 -80 -9.5 -125t-40 -71.5t-75.5 -34t-129 -7.5q-83 0 -128 7.5t-76.5 34t-41.5 71.5t-10 125z" />
<glyph unicode="&#x2026;" horiz-adv-x="1581" d="M96 0v270h215v-270h-215zM682 0v270h215v-270h-215zM1268 0v270h215v-270h-215z" />
<glyph unicode="&#x202f;" horiz-adv-x="408" />
<glyph unicode="&#x2039;" horiz-adv-x="479" d="M78 668v170l319 215v-160l-200 -139l200 -142v-159z" />
<glyph unicode="&#x203a;" horiz-adv-x="479" d="M82 453v159l201 142l-201 139v160l319 -215v-170z" />
<glyph unicode="&#x205f;" horiz-adv-x="510" />
<glyph unicode="&#x20ac;" horiz-adv-x="847" d="M47 573l25 146h55v176h-80l25 147h55v256q0 76 6 128.5t22 91.5t39 61.5t63.5 36t87 18t118.5 4.5q71 0 116.5 -4t85 -18t60.5 -36t36.5 -61.5t21 -91.5t5.5 -129v-98h-227v105q0 82 -18 105.5t-80 23.5q-25 0 -42 -3t-28.5 -12.5t-17.5 -18.5t-9 -30.5t-3.5 -38 t-0.5 -51.5v-238h381l-41 -147h-340v-176h291l-43 -146h-248v-235q0 -103 16 -129.5t85 -26.5q64 0 81 23.5t17 107.5v109h227v-100q0 -78 -5.5 -130t-21 -92t-36.5 -62t-60.5 -36t-85 -18t-116.5 -4q-75 0 -122.5 4t-88 18t-62.5 36t-37.5 62t-20.5 92t-5 130v251h-80z" />
<glyph unicode="&#x2122;" horiz-adv-x="1208" d="M66 1513v105h380v-105h-112v-712h-156v712h-112zM524 801v817h207l90 -553h6l97 553h204v-817h-122v573h-11l-102 -573h-133l-105 579h-8v-579h-123z" />
<glyph unicode="&#xe000;" horiz-adv-x="1228" d="M0 0v1229h1229v-1229h-1229z" />
<glyph unicode="&#xfb01;" horiz-adv-x="892" d="M27 1057v170h75v131q0 137 69 198.5t228 61.5h66v-156h-51q-54 0 -78.5 -27.5t-24.5 -86.5v-121h156v-170h-156v-1057h-209v1057h-75zM590 0v1227h207v-1227h-207zM590 1405v213h207v-213h-207z" />
<glyph unicode="&#xfb02;" horiz-adv-x="886" d="M27 1057v170h75v131q0 137 69 198.5t228 61.5h66v-156h-51q-54 0 -78.5 -27.5t-24.5 -86.5v-121h156v-170h-156v-1057h-209v1057h-75zM586 0v1618h209v-1618h-209z" />
</font>
</defs>
</svg>
